<svg xmlns="http://www.w3.org/2000/svg" viewBox="0 0 128 128">
  <rect width="128" height="128" rx="28" fill="#183a58" />
  <circle cx="95" cy="34" r="19" fill="#45b7a8" />
  <path d="M51 33h33M51 61h48M51 89h34" stroke="#ffffff" stroke-width="9" stroke-linecap="round" />
  <path d="m26 32 8 8 15-18M26 60l8 8 15-18M26 88l8 8 15-18" fill="none" stroke="#f6c85f" stroke-width="8" stroke-linecap="round" stroke-linejoin="round" />
  <path d="M85 35c2.4-7.2 13.2-7.2 15.6 0 5.8.4 10.4 5.1 10.4 10.9 0 6-4.9 10.9-10.9 10.9H82.5c-5.2 0-9.5-4.2-9.5-9.5 0-5 3.9-9.1 8.9-9.4.7-1.5 1.8-2.8 3.1-3.9Z" fill="#ffffff" />
  <path d="m87 46 5 5 10-12" fill="none" stroke="#183a58" stroke-width="4.5" stroke-linecap="round" stroke-linejoin="round" />
</svg>
